<svg width="246" height="58" viewBox="0 0 246 58" fill="none" xmlns="http://www.w3.org/2000/svg">
<rect width="246" height="58" rx="15" fill="#FF992B"/>
<path d="M30.793 30.8711C30.8385 31.6849 31.0306 32.3457 31.3691 32.8535C32.0137 33.804 33.1497 34.2793 34.7773 34.2793C35.5065 34.2793 36.1706 34.1751 36.7695 33.9668C37.9284 33.5632 38.5078 32.8405 38.5078 31.7988C38.5078 31.0176 38.2637 30.4609 37.7754 30.1289C37.2806 29.8034 36.5059 29.5202 35.4512 29.2793L33.5078 28.8398C32.2383 28.5534 31.3398 28.2376 30.8125 27.8926C29.901 27.2936 29.4453 26.3984 29.4453 25.207C29.4453 23.918 29.8913 22.86 30.7832 22.0332C31.6751 21.2064 32.9382 20.793 34.5723 20.793C36.0762 20.793 37.3522 21.1576 38.4004 21.8867C39.4551 22.6094 39.9824 23.7682 39.9824 25.3633H38.1562C38.0586 24.5951 37.8503 24.0059 37.5312 23.5957C36.9388 22.847 35.9329 22.4727 34.5137 22.4727C33.3678 22.4727 32.5443 22.7135 32.043 23.1953C31.5417 23.6771 31.291 24.237 31.291 24.875C31.291 25.5781 31.584 26.0924 32.1699 26.418C32.554 26.6263 33.4232 26.8867 34.7773 27.1992L36.7891 27.6582C37.7591 27.8796 38.5078 28.1823 39.0352 28.5664C39.9466 29.237 40.4023 30.2103 40.4023 31.4863C40.4023 33.0749 39.8229 34.2109 38.6641 34.8945C37.5117 35.5781 36.1706 35.9199 34.6406 35.9199C32.8568 35.9199 31.4603 35.4642 30.4512 34.5527C29.4421 33.6478 28.9473 32.4206 28.9668 30.8711H30.793ZM46.7793 34.3672C47.9447 34.3672 48.7422 33.9277 49.1719 33.0488C49.6081 32.1634 49.8262 31.1803 49.8262 30.0996C49.8262 29.123 49.6699 28.3288 49.3574 27.7168C48.8626 26.7533 48.0098 26.2715 46.7988 26.2715C45.7246 26.2715 44.9434 26.6816 44.4551 27.502C43.9668 28.3223 43.7227 29.3118 43.7227 30.4707C43.7227 31.584 43.9668 32.5117 44.4551 33.2539C44.9434 33.9961 45.7181 34.3672 46.7793 34.3672ZM46.8477 24.7383C48.1953 24.7383 49.3346 25.1875 50.2656 26.0859C51.1966 26.9844 51.6621 28.306 51.6621 30.0508C51.6621 31.737 51.252 33.1302 50.4316 34.2305C49.6113 35.3307 48.3385 35.8809 46.6133 35.8809C45.1745 35.8809 44.0319 35.3958 43.1855 34.4258C42.3392 33.4492 41.916 32.1406 41.916 30.5C41.916 28.7422 42.362 27.3424 43.2539 26.3008C44.1458 25.2591 45.3438 24.7383 46.8477 24.7383ZM53.8105 25.041H55.4805V26.8477C55.6172 26.4961 55.9525 26.0697 56.4863 25.5684C57.0202 25.0605 57.6354 24.8066 58.332 24.8066C58.3646 24.8066 58.4199 24.8099 58.498 24.8164C58.5762 24.8229 58.7096 24.8359 58.8984 24.8555V26.7109C58.7943 26.6914 58.6966 26.6784 58.6055 26.6719C58.5208 26.6654 58.4264 26.6621 58.3223 26.6621C57.4368 26.6621 56.7565 26.9486 56.2812 27.5215C55.806 28.0879 55.5684 28.7422 55.5684 29.4844V35.5H53.8105V25.041ZM60.7734 22.1211H62.5508V25.041H64.2207V26.4766H62.5508V33.3027C62.5508 33.6673 62.6745 33.9115 62.9219 34.0352C63.0586 34.1068 63.2865 34.1426 63.6055 34.1426C63.6901 34.1426 63.7812 34.1426 63.8789 34.1426C63.9766 34.1361 64.0905 34.1263 64.2207 34.1133V35.5C64.0189 35.5586 63.8073 35.6009 63.5859 35.627C63.3711 35.653 63.1367 35.666 62.8828 35.666C62.0625 35.666 61.5059 35.4577 61.2129 35.041C60.9199 34.6178 60.7734 34.071 60.7734 33.4004V26.4766H59.3574V25.041H60.7734V22.1211ZM71.418 21.1055H73.127V26.3105C73.5111 25.8092 73.9701 25.4284 74.5039 25.168C75.0378 24.901 75.6172 24.7676 76.2422 24.7676C77.5443 24.7676 78.599 25.2168 79.4062 26.1152C80.2201 27.0072 80.627 28.3255 80.627 30.0703C80.627 31.724 80.2266 33.0977 79.4258 34.1914C78.625 35.2852 77.515 35.832 76.0957 35.832C75.3014 35.832 74.6309 35.64 74.084 35.2559C73.7585 35.028 73.4102 34.6634 73.0391 34.1621V35.5H71.418V21.1055ZM75.9883 34.2793C76.9388 34.2793 77.6484 33.9017 78.1172 33.1465C78.5924 32.3913 78.8301 31.3952 78.8301 30.1582C78.8301 29.0579 78.5924 28.1465 78.1172 27.4238C77.6484 26.7012 76.9551 26.3398 76.0371 26.3398C75.2363 26.3398 74.5332 26.6361 73.9277 27.2285C73.3288 27.821 73.0293 28.7975 73.0293 30.1582C73.0293 31.1413 73.153 31.9388 73.4004 32.5508C73.8626 33.7031 74.7253 34.2793 75.9883 34.2793ZM89.2207 25.041H91.1641C90.9167 25.7116 90.3665 27.2415 89.5137 29.6309C88.8757 31.4277 88.3418 32.8926 87.9121 34.0254C86.8965 36.6947 86.1803 38.3223 85.7637 38.9082C85.347 39.4941 84.6309 39.7871 83.6152 39.7871C83.3678 39.7871 83.1758 39.7773 83.0391 39.7578C82.9089 39.7383 82.7461 39.7025 82.5508 39.6504V38.0488C82.8568 38.1335 83.0781 38.1855 83.2148 38.2051C83.3516 38.2246 83.472 38.2344 83.5762 38.2344C83.9017 38.2344 84.1393 38.179 84.2891 38.0684C84.4453 37.9642 84.5755 37.834 84.6797 37.6777C84.7122 37.6257 84.8294 37.3587 85.0312 36.877C85.2331 36.3952 85.3796 36.0371 85.4707 35.8027L81.6035 25.041H83.5957L86.3984 33.5566L89.2207 25.041ZM93.6152 25.1777H95.6562V27.3066H93.6152V25.1777ZM93.6152 33.3711H95.6562V35.5H93.6152V33.3711ZM114.26 23.6543H107.043V26.9648H113.361V29.4648H107.043V35.5H104.055V21.125H114.26V23.6543ZM125.168 32.375C125.096 33.0065 124.768 33.6478 124.182 34.2988C123.27 35.334 121.994 35.8516 120.354 35.8516C118.999 35.8516 117.805 35.4154 116.77 34.543C115.734 33.6706 115.217 32.2513 115.217 30.2852C115.217 28.4427 115.682 27.0299 116.613 26.0469C117.551 25.0638 118.765 24.5723 120.256 24.5723C121.141 24.5723 121.939 24.7383 122.648 25.0703C123.358 25.4023 123.944 25.9264 124.406 26.6426C124.823 27.2741 125.093 28.0065 125.217 28.8398C125.288 29.3281 125.318 30.0312 125.305 30.9492H118.02C118.059 32.0169 118.394 32.7656 119.025 33.1953C119.41 33.4622 119.872 33.5957 120.412 33.5957C120.985 33.5957 121.451 33.4329 121.809 33.1074C122.004 32.9316 122.176 32.6875 122.326 32.375H125.168ZM122.414 29.1133C122.368 28.3776 122.144 27.821 121.74 27.4434C121.343 27.0592 120.848 26.8672 120.256 26.8672C119.611 26.8672 119.11 27.069 118.752 27.4727C118.4 27.8763 118.179 28.4232 118.088 29.1133H122.414ZM127.59 26.0078C128.326 25.0703 129.589 24.6016 131.379 24.6016C132.544 24.6016 133.579 24.8327 134.484 25.2949C135.389 25.7572 135.842 26.6296 135.842 27.9121V32.7949C135.842 33.1335 135.848 33.5436 135.861 34.0254C135.881 34.39 135.936 34.6374 136.027 34.7676C136.118 34.8978 136.255 35.0052 136.438 35.0898V35.5H133.41C133.326 35.2852 133.267 35.0833 133.234 34.8945C133.202 34.7057 133.176 34.4909 133.156 34.25C132.772 34.6667 132.329 35.0215 131.828 35.3145C131.229 35.6595 130.552 35.832 129.797 35.832C128.833 35.832 128.036 35.5586 127.404 35.0117C126.779 34.4583 126.467 33.6771 126.467 32.668C126.467 31.3594 126.971 30.4121 127.98 29.8262C128.534 29.5072 129.348 29.2793 130.422 29.1426L131.369 29.0254C131.883 28.9603 132.251 28.8789 132.473 28.7812C132.87 28.612 133.068 28.3483 133.068 27.9902C133.068 27.554 132.915 27.2546 132.609 27.0918C132.31 26.9225 131.867 26.8379 131.281 26.8379C130.624 26.8379 130.158 27.0007 129.885 27.3262C129.689 27.5671 129.559 27.8926 129.494 28.3027H126.809C126.867 27.3717 127.128 26.6068 127.59 26.0078ZM129.66 33.4883C129.921 33.7031 130.24 33.8105 130.617 33.8105C131.216 33.8105 131.766 33.6348 132.268 33.2832C132.775 32.9316 133.039 32.2904 133.059 31.3594V30.3242C132.883 30.4349 132.704 30.526 132.521 30.5977C132.346 30.6628 132.102 30.7246 131.789 30.7832L131.164 30.9004C130.578 31.0046 130.158 31.1315 129.904 31.2812C129.475 31.5352 129.26 31.929 129.26 32.4629C129.26 32.9382 129.393 33.2799 129.66 33.4883ZM143.195 33.5176V35.5977L141.877 35.6465C140.562 35.6921 139.663 35.4642 139.182 34.9629C138.869 34.6439 138.713 34.1523 138.713 33.4883V26.9355H137.229V24.9531H138.713V21.9844H141.467V24.9531H143.195V26.9355H141.467V32.5605C141.467 32.9967 141.522 33.2702 141.633 33.3809C141.743 33.485 142.082 33.5371 142.648 33.5371C142.733 33.5371 142.821 33.5371 142.912 33.5371C143.01 33.5306 143.104 33.5241 143.195 33.5176ZM151.809 33.9961C151.783 34.0286 151.717 34.1263 151.613 34.2891C151.509 34.4518 151.385 34.5951 151.242 34.7188C150.806 35.1094 150.383 35.3763 149.973 35.5195C149.569 35.6628 149.094 35.7344 148.547 35.7344C146.971 35.7344 145.91 35.168 145.363 34.0352C145.057 33.4102 144.904 32.4889 144.904 31.2715V24.8555H147.756V31.2715C147.756 31.877 147.827 32.3327 147.971 32.6387C148.225 33.179 148.723 33.4492 149.465 33.4492C150.415 33.4492 151.066 33.0651 151.418 32.2969C151.6 31.8802 151.691 31.3301 151.691 30.6465V24.8555H154.514V35.5H151.809V33.9961ZM162.561 27.4238C161.441 27.4238 160.689 27.7884 160.305 28.5176C160.09 28.9277 159.982 29.5592 159.982 30.4121V35.5H157.18V24.8555H159.836V26.7109C160.266 26.0013 160.64 25.5163 160.959 25.2559C161.48 24.8197 162.157 24.6016 162.99 24.6016C163.042 24.6016 163.085 24.6048 163.117 24.6113C163.156 24.6113 163.238 24.6146 163.361 24.6211V27.4727C163.186 27.4531 163.029 27.4401 162.893 27.4336C162.756 27.4271 162.645 27.4238 162.561 27.4238ZM174.113 32.375C174.042 33.0065 173.713 33.6478 173.127 34.2988C172.215 35.334 170.939 35.8516 169.299 35.8516C167.945 35.8516 166.75 35.4154 165.715 34.543C164.68 33.6706 164.162 32.2513 164.162 30.2852C164.162 28.4427 164.628 27.0299 165.559 26.0469C166.496 25.0638 167.71 24.5723 169.201 24.5723C170.087 24.5723 170.884 24.7383 171.594 25.0703C172.303 25.4023 172.889 25.9264 173.352 26.6426C173.768 27.2741 174.038 28.0065 174.162 28.8398C174.234 29.3281 174.263 30.0312 174.25 30.9492H166.965C167.004 32.0169 167.339 32.7656 167.971 33.1953C168.355 33.4622 168.817 33.5957 169.357 33.5957C169.93 33.5957 170.396 33.4329 170.754 33.1074C170.949 32.9316 171.122 32.6875 171.271 32.375H174.113ZM171.359 29.1133C171.314 28.3776 171.089 27.821 170.686 27.4434C170.288 27.0592 169.794 26.8672 169.201 26.8672C168.557 26.8672 168.055 27.069 167.697 27.4727C167.346 27.8763 167.124 28.4232 167.033 29.1133H171.359ZM185.822 21.125V35.5H183.117V34.0254C182.72 34.6569 182.268 35.1159 181.76 35.4023C181.252 35.6888 180.62 35.832 179.865 35.832C178.622 35.832 177.574 35.3307 176.721 34.3281C175.874 33.319 175.451 32.0267 175.451 30.4512C175.451 28.6348 175.868 27.2057 176.701 26.1641C177.541 25.1224 178.661 24.6016 180.061 24.6016C180.705 24.6016 181.278 24.7448 181.779 25.0312C182.281 25.3112 182.688 25.7018 183 26.2031V21.125H185.822ZM178.322 30.2461C178.322 31.2292 178.518 32.0137 178.908 32.5996C179.292 33.1921 179.878 33.4883 180.666 33.4883C181.454 33.4883 182.053 33.1953 182.463 32.6094C182.873 32.0234 183.078 31.265 183.078 30.334C183.078 29.0319 182.749 28.1009 182.092 27.541C181.688 27.2025 181.219 27.0332 180.686 27.0332C179.872 27.0332 179.273 27.3424 178.889 27.9609C178.511 28.5729 178.322 29.3346 178.322 30.2461Z" fill="#303030"/>
<path d="M200 26L206 32L212 26" stroke="#303030" stroke-width="2.5" stroke-linecap="round" stroke-linejoin="round"/>
</svg>
