<svg width="246" height="236" viewBox="0 0 246 236" fill="none" xmlns="http://www.w3.org/2000/svg">
<rect width="246" height="58" rx="15" fill="#FF992B"/>
<path d="M30.793 30.8711C30.8385 31.6849 31.0306 32.3457 31.3691 32.8535C32.0137 33.804 33.1497 34.2793 34.7773 34.2793C35.5065 34.2793 36.1706 34.1751 36.7695 33.9668C37.9284 33.5632 38.5078 32.8405 38.5078 31.7988C38.5078 31.0176 38.2637 30.4609 37.7754 30.1289C37.2806 29.8034 36.5059 29.5202 35.4512 29.2793L33.5078 28.8398C32.2383 28.5534 31.3398 28.2376 30.8125 27.8926C29.901 27.2936 29.4453 26.3984 29.4453 25.207C29.4453 23.918 29.8913 22.86 30.7832 22.0332C31.6751 21.2064 32.9382 20.793 34.5723 20.793C36.0762 20.793 37.3522 21.1576 38.4004 21.8867C39.4551 22.6094 39.9824 23.7682 39.9824 25.3633H38.1562C38.0586 24.5951 37.8503 24.0059 37.5312 23.5957C36.9388 22.847 35.9329 22.4727 34.5137 22.4727C33.3678 22.4727 32.5443 22.7135 32.043 23.1953C31.5417 23.6771 31.291 24.237 31.291 24.875C31.291 25.5781 31.584 26.0924 32.1699 26.418C32.554 26.6263 33.4232 26.8867 34.7773 27.1992L36.7891 27.6582C37.7591 27.8796 38.5078 28.1823 39.0352 28.5664C39.9466 29.237 40.4023 30.2103 40.4023 31.4863C40.4023 33.0749 39.8229 34.2109 38.6641 34.8945C37.5117 35.5781 36.1706 35.9199 34.6406 35.9199C32.8568 35.9199 31.4603 35.4642 30.4512 34.5527C29.4421 33.6478 28.9473 32.4206 28.9668 30.8711H30.793ZM46.7793 34.3672C47.9447 34.3672 48.7422 33.9277 49.1719 33.0488C49.6081 32.1634 49.8262 31.1803 49.8262 30.0996C49.8262 29.123 49.6699 28.3288 49.3574 27.7168C48.8626 26.7533 48.0098 26.2715 46.7988 26.2715C45.7246 26.2715 44.9434 26.6816 44.4551 27.502C43.9668 28.3223 43.7227 29.3118 43.7227 30.4707C43.7227 31.584 43.9668 32.5117 44.4551 33.2539C44.9434 33.9961 45.7181 34.3672 46.7793 34.3672ZM46.8477 24.7383C48.1953 24.7383 49.3346 25.1875 50.2656 26.0859C51.1966 26.9844 51.6621 28.306 51.6621 30.0508C51.6621 31.737 51.252 33.1302 50.4316 34.2305C49.6113 35.3307 48.3385 35.8809 46.6133 35.8809C45.1745 35.8809 44.0319 35.3958 43.1855 34.4258C42.3392 33.4492 41.916 32.1406 41.916 30.5C41.916 28.7422 42.362 27.3424 43.2539 26.3008C44.1458 25.2591 45.3438 24.7383 46.8477 24.7383ZM53.8105 25.041H55.4805V26.8477C55.6172 26.4961 55.9525 26.0697 56.4863 25.5684C57.0202 25.0605 57.6354 24.8066 58.332 24.8066C58.3646 24.8066 58.4199 24.8099 58.498 24.8164C58.5762 24.8229 58.7096 24.8359 58.8984 24.8555V26.7109C58.7943 26.6914 58.6966 26.6784 58.6055 26.6719C58.5208 26.6654 58.4264 26.6621 58.3223 26.6621C57.4368 26.6621 56.7565 26.9486 56.2812 27.5215C55.806 28.0879 55.5684 28.7422 55.5684 29.4844V35.5H53.8105V25.041ZM60.7734 22.1211H62.5508V25.041H64.2207V26.4766H62.5508V33.3027C62.5508 33.6673 62.6745 33.9115 62.9219 34.0352C63.0586 34.1068 63.2865 34.1426 63.6055 34.1426C63.6901 34.1426 63.7812 34.1426 63.8789 34.1426C63.9766 34.1361 64.0905 34.1263 64.2207 34.1133V35.5C64.0189 35.5586 63.8073 35.6009 63.5859 35.627C63.3711 35.653 63.1367 35.666 62.8828 35.666C62.0625 35.666 61.5059 35.4577 61.2129 35.041C60.9199 34.6178 60.7734 34.071 60.7734 33.4004V26.4766H59.3574V25.041H60.7734V22.1211ZM71.418 21.1055H73.127V26.3105C73.5111 25.8092 73.9701 25.4284 74.5039 25.168C75.0378 24.901 75.6172 24.7676 76.2422 24.7676C77.5443 24.7676 78.599 25.2168 79.4062 26.1152C80.2201 27.0072 80.627 28.3255 80.627 30.0703C80.627 31.724 80.2266 33.0977 79.4258 34.1914C78.625 35.2852 77.515 35.832 76.0957 35.832C75.3014 35.832 74.6309 35.64 74.084 35.2559C73.7585 35.028 73.4102 34.6634 73.0391 34.1621V35.5H71.418V21.1055ZM75.9883 34.2793C76.9388 34.2793 77.6484 33.9017 78.1172 33.1465C78.5924 32.3913 78.8301 31.3952 78.8301 30.1582C78.8301 29.0579 78.5924 28.1465 78.1172 27.4238C77.6484 26.7012 76.9551 26.3398 76.0371 26.3398C75.2363 26.3398 74.5332 26.6361 73.9277 27.2285C73.3288 27.821 73.0293 28.7975 73.0293 30.1582C73.0293 31.1413 73.153 31.9388 73.4004 32.5508C73.8626 33.7031 74.7253 34.2793 75.9883 34.2793ZM89.2207 25.041H91.1641C90.9167 25.7116 90.3665 27.2415 89.5137 29.6309C88.8757 31.4277 88.3418 32.8926 87.9121 34.0254C86.8965 36.6947 86.1803 38.3223 85.7637 38.9082C85.347 39.4941 84.6309 39.7871 83.6152 39.7871C83.3678 39.7871 83.1758 39.7773 83.0391 39.7578C82.9089 39.7383 82.7461 39.7025 82.5508 39.6504V38.0488C82.8568 38.1335 83.0781 38.1855 83.2148 38.2051C83.3516 38.2246 83.472 38.2344 83.5762 38.2344C83.9017 38.2344 84.1393 38.179 84.2891 38.0684C84.4453 37.9642 84.5755 37.834 84.6797 37.6777C84.7122 37.6257 84.8294 37.3587 85.0312 36.877C85.2331 36.3952 85.3796 36.0371 85.4707 35.8027L81.6035 25.041H83.5957L86.3984 33.5566L89.2207 25.041ZM93.6152 25.1777H95.6562V27.3066H93.6152V25.1777ZM93.6152 33.3711H95.6562V35.5H93.6152V33.3711ZM114.26 23.6543H107.043V26.9648H113.361V29.4648H107.043V35.5H104.055V21.125H114.26V23.6543ZM125.168 32.375C125.096 33.0065 124.768 33.6478 124.182 34.2988C123.27 35.334 121.994 35.8516 120.354 35.8516C118.999 35.8516 117.805 35.4154 116.77 34.543C115.734 33.6706 115.217 32.2513 115.217 30.2852C115.217 28.4427 115.682 27.0299 116.613 26.0469C117.551 25.0638 118.765 24.5723 120.256 24.5723C121.141 24.5723 121.939 24.7383 122.648 25.0703C123.358 25.4023 123.944 25.9264 124.406 26.6426C124.823 27.2741 125.093 28.0065 125.217 28.8398C125.288 29.3281 125.318 30.0312 125.305 30.9492H118.02C118.059 32.0169 118.394 32.7656 119.025 33.1953C119.41 33.4622 119.872 33.5957 120.412 33.5957C120.985 33.5957 121.451 33.4329 121.809 33.1074C122.004 32.9316 122.176 32.6875 122.326 32.375H125.168ZM122.414 29.1133C122.368 28.3776 122.144 27.821 121.74 27.4434C121.343 27.0592 120.848 26.8672 120.256 26.8672C119.611 26.8672 119.11 27.069 118.752 27.4727C118.4 27.8763 118.179 28.4232 118.088 29.1133H122.414ZM127.59 26.0078C128.326 25.0703 129.589 24.6016 131.379 24.6016C132.544 24.6016 133.579 24.8327 134.484 25.2949C135.389 25.7572 135.842 26.6296 135.842 27.9121V32.7949C135.842 33.1335 135.848 33.5436 135.861 34.0254C135.881 34.39 135.936 34.6374 136.027 34.7676C136.118 34.8978 136.255 35.0052 136.438 35.0898V35.5H133.41C133.326 35.2852 133.267 35.0833 133.234 34.8945C133.202 34.7057 133.176 34.4909 133.156 34.25C132.772 34.6667 132.329 35.0215 131.828 35.3145C131.229 35.6595 130.552 35.832 129.797 35.832C128.833 35.832 128.036 35.5586 127.404 35.0117C126.779 34.4583 126.467 33.6771 126.467 32.668C126.467 31.3594 126.971 30.4121 127.98 29.8262C128.534 29.5072 129.348 29.2793 130.422 29.1426L131.369 29.0254C131.883 28.9603 132.251 28.8789 132.473 28.7812C132.87 28.612 133.068 28.3483 133.068 27.9902C133.068 27.554 132.915 27.2546 132.609 27.0918C132.31 26.9225 131.867 26.8379 131.281 26.8379C130.624 26.8379 130.158 27.0007 129.885 27.3262C129.689 27.5671 129.559 27.8926 129.494 28.3027H126.809C126.867 27.3717 127.128 26.6068 127.59 26.0078ZM129.66 33.4883C129.921 33.7031 130.24 33.8105 130.617 33.8105C131.216 33.8105 131.766 33.6348 132.268 33.2832C132.775 32.9316 133.039 32.2904 133.059 31.3594V30.3242C132.883 30.4349 132.704 30.526 132.521 30.5977C132.346 30.6628 132.102 30.7246 131.789 30.7832L131.164 30.9004C130.578 31.0046 130.158 31.1315 129.904 31.2812C129.475 31.5352 129.26 31.929 129.26 32.4629C129.26 32.9382 129.393 33.2799 129.66 33.4883ZM143.195 33.5176V35.5977L141.877 35.6465C140.562 35.6921 139.663 35.4642 139.182 34.9629C138.869 34.6439 138.713 34.1523 138.713 33.4883V26.9355H137.229V24.9531H138.713V21.9844H141.467V24.9531H143.195V26.9355H141.467V32.5605C141.467 32.9967 141.522 33.2702 141.633 33.3809C141.743 33.485 142.082 33.5371 142.648 33.5371C142.733 33.5371 142.821 33.5371 142.912 33.5371C143.01 33.5306 143.104 33.5241 143.195 33.5176ZM151.809 33.9961C151.783 34.0286 151.717 34.1263 151.613 34.2891C151.509 34.4518 151.385 34.5951 151.242 34.7188C150.806 35.1094 150.383 35.3763 149.973 35.5195C149.569 35.6628 149.094 35.7344 148.547 35.7344C146.971 35.7344 145.91 35.168 145.363 34.0352C145.057 33.4102 144.904 32.4889 144.904 31.2715V24.8555H147.756V31.2715C147.756 31.877 147.827 32.3327 147.971 32.6387C148.225 33.179 148.723 33.4492 149.465 33.4492C150.415 33.4492 151.066 33.0651 151.418 32.2969C151.6 31.8802 151.691 31.3301 151.691 30.6465V24.8555H154.514V35.5H151.809V33.9961ZM162.561 27.4238C161.441 27.4238 160.689 27.7884 160.305 28.5176C160.09 28.9277 159.982 29.5592 159.982 30.4121V35.5H157.18V24.8555H159.836V26.7109C160.266 26.0013 160.64 25.5163 160.959 25.2559C161.48 24.8197 162.157 24.6016 162.99 24.6016C163.042 24.6016 163.085 24.6048 163.117 24.6113C163.156 24.6113 163.238 24.6146 163.361 24.6211V27.4727C163.186 27.4531 163.029 27.4401 162.893 27.4336C162.756 27.4271 162.645 27.4238 162.561 27.4238ZM174.113 32.375C174.042 33.0065 173.713 33.6478 173.127 34.2988C172.215 35.334 170.939 35.8516 169.299 35.8516C167.945 35.8516 166.75 35.4154 165.715 34.543C164.68 33.6706 164.162 32.2513 164.162 30.2852C164.162 28.4427 164.628 27.0299 165.559 26.0469C166.496 25.0638 167.71 24.5723 169.201 24.5723C170.087 24.5723 170.884 24.7383 171.594 25.0703C172.303 25.4023 172.889 25.9264 173.352 26.6426C173.768 27.2741 174.038 28.0065 174.162 28.8398C174.234 29.3281 174.263 30.0312 174.25 30.9492H166.965C167.004 32.0169 167.339 32.7656 167.971 33.1953C168.355 33.4622 168.817 33.5957 169.357 33.5957C169.93 33.5957 170.396 33.4329 170.754 33.1074C170.949 32.9316 171.122 32.6875 171.271 32.375H174.113ZM171.359 29.1133C171.314 28.3776 171.089 27.821 170.686 27.4434C170.288 27.0592 169.794 26.8672 169.201 26.8672C168.557 26.8672 168.055 27.069 167.697 27.4727C167.346 27.8763 167.124 28.4232 167.033 29.1133H171.359ZM185.822 21.125V35.5H183.117V34.0254C182.72 34.6569 182.268 35.1159 181.76 35.4023C181.252 35.6888 180.62 35.832 179.865 35.832C178.622 35.832 177.574 35.3307 176.721 34.3281C175.874 33.319 175.451 32.0267 175.451 30.4512C175.451 28.6348 175.868 27.2057 176.701 26.1641C177.541 25.1224 178.661 24.6016 180.061 24.6016C180.705 24.6016 181.278 24.7448 181.779 25.0312C182.281 25.3112 182.688 25.7018 183 26.2031V21.125H185.822ZM178.322 30.2461C178.322 31.2292 178.518 32.0137 178.908 32.5996C179.292 33.1921 179.878 33.4883 180.666 33.4883C181.454 33.4883 182.053 33.1953 182.463 32.6094C182.873 32.0234 183.078 31.265 183.078 30.334C183.078 29.0319 182.749 28.1009 182.092 27.541C181.688 27.2025 181.219 27.0332 180.686 27.0332C179.872 27.0332 179.273 27.3424 178.889 27.9609C178.511 28.5729 178.322 29.3346 178.322 30.2461Z" fill="#303030"/>
<path d="M200 32L206 26L212 32" stroke="#303030" stroke-width="2.5" stroke-linecap="round" stroke-linejoin="round"/>
<rect y="64" width="246" height="172" rx="15" fill="#F5F5F5"/>
<path d="M39.9629 87.321H32.7461V90.6316H39.0645V93.1316H32.7461V99.1667H29.7578V84.7917H39.9629V87.321ZM50.8711 96.0417C50.7995 96.6733 50.4707 97.3145 49.8848 97.9656C48.9733 99.0007 47.6973 99.5183 46.0566 99.5183C44.7025 99.5183 43.5078 99.0821 42.4727 98.2097C41.4375 97.3373 40.9199 95.9181 40.9199 93.9519C40.9199 92.1095 41.3854 90.6967 42.3164 89.7136C43.2539 88.7306 44.4681 88.239 45.959 88.239C46.8444 88.239 47.6419 88.405 48.3516 88.7371C49.0612 89.0691 49.6471 89.5932 50.1094 90.3093C50.526 90.9408 50.7962 91.6733 50.9199 92.5066C50.9915 92.9949 51.0208 93.698 51.0078 94.616H43.7227C43.7617 95.6837 44.097 96.4324 44.7285 96.8621C45.1126 97.129 45.5749 97.2625 46.1152 97.2625C46.6882 97.2625 47.1536 97.0997 47.5117 96.7742C47.707 96.5984 47.8796 96.3542 48.0293 96.0417H50.8711ZM48.1172 92.78C48.0716 92.0444 47.847 91.4877 47.4434 91.1101C47.0462 90.726 46.5514 90.5339 45.959 90.5339C45.3145 90.5339 44.8132 90.7358 44.4551 91.1394C44.1035 91.5431 43.8822 92.0899 43.791 92.78H48.1172ZM53.293 89.6746C54.0286 88.7371 55.2917 88.2683 57.082 88.2683C58.2474 88.2683 59.2826 88.4994 60.1875 88.9617C61.0924 89.4239 61.5449 90.2963 61.5449 91.5789V96.4617C61.5449 96.8002 61.5514 97.2104 61.5645 97.6921C61.584 98.0567 61.6393 98.3041 61.7305 98.4343C61.8216 98.5645 61.9583 98.672 62.1406 98.7566V99.1667H59.1133C59.0286 98.9519 58.9701 98.7501 58.9375 98.5613C58.9049 98.3725 58.8789 98.1576 58.8594 97.9167C58.4753 98.3334 58.0326 98.6882 57.5312 98.9812C56.9323 99.3263 56.2552 99.4988 55.5 99.4988C54.5365 99.4988 53.7389 99.2253 53.1074 98.6785C52.4824 98.1251 52.1699 97.3438 52.1699 96.3347C52.1699 95.0261 52.6745 94.0789 53.6836 93.4929C54.237 93.1739 55.0508 92.946 56.125 92.8093L57.0723 92.6921C57.5866 92.627 57.9544 92.5457 58.1758 92.448C58.5729 92.2787 58.7715 92.0151 58.7715 91.657C58.7715 91.2208 58.6185 90.9213 58.3125 90.7585C58.013 90.5893 57.5703 90.5046 56.9844 90.5046C56.3268 90.5046 55.8613 90.6674 55.5879 90.9929C55.3926 91.2338 55.2624 91.5593 55.1973 91.9695H52.5117C52.5703 91.0385 52.8307 90.2735 53.293 89.6746ZM55.3633 97.155C55.6237 97.3699 55.9427 97.4773 56.3203 97.4773C56.9193 97.4773 57.4694 97.3015 57.9707 96.95C58.4785 96.5984 58.7422 95.9571 58.7617 95.0261V93.991C58.5859 94.1016 58.4069 94.1928 58.2246 94.2644C58.0488 94.3295 57.8047 94.3914 57.4922 94.45L56.8672 94.5671C56.2812 94.6713 55.8613 94.7983 55.6074 94.948C55.1777 95.2019 54.9629 95.5958 54.9629 96.1296C54.9629 96.6049 55.0964 96.9467 55.3633 97.155ZM68.8984 97.1843V99.2644L67.5801 99.3132C66.265 99.3588 65.3665 99.1309 64.8848 98.6296C64.5723 98.3106 64.416 97.8191 64.416 97.155V90.6023H62.9316V88.6199H64.416V85.6511H67.1699V88.6199H68.8984V90.6023H67.1699V96.2273C67.1699 96.6635 67.2253 96.9369 67.3359 97.0476C67.4466 97.1518 67.7852 97.2039 68.3516 97.2039C68.4362 97.2039 68.5241 97.2039 68.6152 97.2039C68.7129 97.1973 68.8073 97.1908 68.8984 97.1843ZM77.5117 97.6628C77.4857 97.6954 77.4206 97.7931 77.3164 97.9558C77.2122 98.1186 77.0885 98.2618 76.9453 98.3855C76.5091 98.7761 76.0859 99.0431 75.6758 99.1863C75.2721 99.3295 74.7969 99.4011 74.25 99.4011C72.6745 99.4011 71.6133 98.8347 71.0664 97.7019C70.7604 97.0769 70.6074 96.1557 70.6074 94.9382V88.5222H73.459V94.9382C73.459 95.5437 73.5306 95.9994 73.6738 96.3054C73.9277 96.8458 74.4258 97.116 75.168 97.116C76.1185 97.116 76.7695 96.7319 77.1211 95.9636C77.3034 95.547 77.3945 94.9968 77.3945 94.3132V88.5222H80.2168V99.1667H77.5117V97.6628ZM88.2637 91.0906C87.1439 91.0906 86.3919 91.4552 86.0078 92.1843C85.793 92.5945 85.6855 93.226 85.6855 94.0789V99.1667H82.8828V88.5222H85.5391V90.3777C85.9688 89.6681 86.3431 89.183 86.6621 88.9226C87.1829 88.4864 87.86 88.2683 88.6934 88.2683C88.7454 88.2683 88.7878 88.2716 88.8203 88.2781C88.8594 88.2781 88.9408 88.2813 89.0645 88.2878V91.1394C88.8887 91.1199 88.7324 91.1069 88.5957 91.1003C88.459 91.0938 88.3483 91.0906 88.2637 91.0906ZM99.8164 96.0417C99.7448 96.6733 99.416 97.3145 98.8301 97.9656C97.9186 99.0007 96.6426 99.5183 95.002 99.5183C93.6478 99.5183 92.4531 99.0821 91.418 98.2097C90.3828 97.3373 89.8652 95.9181 89.8652 93.9519C89.8652 92.1095 90.3307 90.6967 91.2617 89.7136C92.1992 88.7306 93.4134 88.239 94.9043 88.239C95.7897 88.239 96.5872 88.405 97.2969 88.7371C98.0065 89.0691 98.5924 89.5932 99.0547 90.3093C99.4714 90.9408 99.7415 91.6733 99.8652 92.5066C99.9368 92.9949 99.9661 93.698 99.9531 94.616H92.668C92.707 95.6837 93.0423 96.4324 93.6738 96.8621C94.0579 97.129 94.5202 97.2625 95.0605 97.2625C95.6335 97.2625 96.099 97.0997 96.457 96.7742C96.6523 96.5984 96.8249 96.3542 96.9746 96.0417H99.8164ZM97.0625 92.78C97.0169 92.0444 96.7923 91.4877 96.3887 91.1101C95.9915 90.726 95.4967 90.5339 94.9043 90.5339C94.2598 90.5339 93.7585 90.7358 93.4004 91.1394C93.0488 91.5431 92.8275 92.0899 92.7363 92.78H97.0625ZM111.525 84.7917V99.1667H108.82V97.6921C108.423 98.3236 107.971 98.7826 107.463 99.0691C106.955 99.3556 106.324 99.4988 105.568 99.4988C104.325 99.4988 103.277 98.9975 102.424 97.9949C101.577 96.9858 101.154 95.6934 101.154 94.1179C101.154 92.3015 101.571 90.8725 102.404 89.8308C103.244 88.7891 104.364 88.2683 105.764 88.2683C106.408 88.2683 106.981 88.4115 107.482 88.698C107.984 88.9779 108.391 89.3686 108.703 89.8699V84.7917H111.525ZM104.025 93.9128C104.025 94.8959 104.221 95.6804 104.611 96.2664C104.995 96.8588 105.581 97.155 106.369 97.155C107.157 97.155 107.756 96.8621 108.166 96.2761C108.576 95.6902 108.781 94.9317 108.781 94.0007C108.781 92.6986 108.452 91.7677 107.795 91.2078C107.391 90.8692 106.923 90.7 106.389 90.7C105.575 90.7 104.976 91.0092 104.592 91.6277C104.214 92.2397 104.025 93.0014 104.025 93.9128Z" fill="#303030"/>
<path d="M29.5195 142.154H32.3027L36.4238 154.283L40.5156 142.154H43.2695V156.5H41.4238V148.033C41.4238 147.74 41.4303 147.255 41.4434 146.578C41.4564 145.901 41.4629 145.175 41.4629 144.4L37.3711 156.5H35.4473L31.3262 144.4V144.84C31.3262 145.191 31.3327 145.729 31.3457 146.451C31.3652 147.167 31.375 147.695 31.375 148.033V156.5H29.5195V142.154ZM50.1445 155.367C51.3099 155.367 52.1074 154.928 52.5371 154.049C52.9733 153.163 53.1914 152.18 53.1914 151.1C53.1914 150.123 53.0352 149.329 52.7227 148.717C52.2279 147.753 51.375 147.271 50.1641 147.271C49.0898 147.271 48.3086 147.682 47.8203 148.502C47.332 149.322 47.0879 150.312 47.0879 151.471C47.0879 152.584 47.332 153.512 47.8203 154.254C48.3086 154.996 49.0833 155.367 50.1445 155.367ZM50.2129 145.738C51.5605 145.738 52.6999 146.188 53.6309 147.086C54.5618 147.984 55.0273 149.306 55.0273 151.051C55.0273 152.737 54.6172 154.13 53.7969 155.23C52.9766 156.331 51.7038 156.881 49.9785 156.881C48.5397 156.881 47.3971 156.396 46.5508 155.426C45.7044 154.449 45.2812 153.141 45.2812 151.5C45.2812 149.742 45.7272 148.342 46.6191 147.301C47.5111 146.259 48.709 145.738 50.2129 145.738ZM58.1719 153.219C58.224 153.805 58.3704 154.254 58.6113 154.566C59.054 155.133 59.8223 155.416 60.916 155.416C61.5671 155.416 62.14 155.276 62.6348 154.996C63.1296 154.71 63.377 154.27 63.377 153.678C63.377 153.229 63.1784 152.887 62.7812 152.652C62.5273 152.509 62.026 152.343 61.2773 152.154L59.8809 151.803C58.9889 151.581 58.3314 151.334 57.9082 151.061C57.153 150.585 56.7754 149.928 56.7754 149.088C56.7754 148.098 57.1302 147.298 57.8398 146.686C58.556 146.074 59.5163 145.768 60.7207 145.768C62.2962 145.768 63.4323 146.23 64.1289 147.154C64.5651 147.74 64.7767 148.372 64.7637 149.049H63.1035C63.071 148.652 62.931 148.29 62.6836 147.965C62.2799 147.503 61.5801 147.271 60.584 147.271C59.9199 147.271 59.4154 147.398 59.0703 147.652C58.7318 147.906 58.5625 148.242 58.5625 148.658C58.5625 149.114 58.7871 149.479 59.2363 149.752C59.4967 149.915 59.8809 150.058 60.3887 150.182L61.5508 150.465C62.8138 150.771 63.6602 151.067 64.0898 151.354C64.7734 151.803 65.1152 152.509 65.1152 153.473C65.1152 154.404 64.7604 155.208 64.0508 155.885C63.3477 156.562 62.2734 156.9 60.8281 156.9C59.2721 156.9 58.1686 156.549 57.5176 155.846C56.873 155.136 56.528 154.26 56.4824 153.219H58.1719ZM67.4785 143.121H69.2559V146.041H70.9258V147.477H69.2559V154.303C69.2559 154.667 69.3796 154.911 69.627 155.035C69.7637 155.107 69.9915 155.143 70.3105 155.143C70.3952 155.143 70.4863 155.143 70.584 155.143C70.6816 155.136 70.7956 155.126 70.9258 155.113V156.5C70.724 156.559 70.5124 156.601 70.291 156.627C70.0762 156.653 69.8418 156.666 69.5879 156.666C68.7676 156.666 68.2109 156.458 67.918 156.041C67.625 155.618 67.4785 155.071 67.4785 154.4V147.477H66.0625V146.041H67.4785V143.121ZM78.6797 142.154H85.1348C86.4108 142.154 87.4395 142.516 88.2207 143.238C89.002 143.954 89.3926 144.964 89.3926 146.266C89.3926 147.385 89.0443 148.362 88.3477 149.195C87.651 150.022 86.5801 150.436 85.1348 150.436H80.623V156.5H78.6797V142.154ZM87.4297 146.275C87.4297 145.221 87.0391 144.505 86.2578 144.127C85.8281 143.925 85.2389 143.824 84.4902 143.824H80.623V148.795H84.4902C85.3626 148.795 86.069 148.609 86.6094 148.238C87.1562 147.867 87.4297 147.213 87.4297 146.275ZM95.75 155.367C96.9154 155.367 97.7129 154.928 98.1426 154.049C98.5788 153.163 98.7969 152.18 98.7969 151.1C98.7969 150.123 98.6406 149.329 98.3281 148.717C97.8333 147.753 96.9805 147.271 95.7695 147.271C94.6953 147.271 93.9141 147.682 93.4258 148.502C92.9375 149.322 92.6934 150.312 92.6934 151.471C92.6934 152.584 92.9375 153.512 93.4258 154.254C93.9141 154.996 94.6888 155.367 95.75 155.367ZM95.8184 145.738C97.166 145.738 98.3053 146.188 99.2363 147.086C100.167 147.984 100.633 149.306 100.633 151.051C100.633 152.737 100.223 154.13 99.4023 155.23C98.582 156.331 97.3092 156.881 95.584 156.881C94.1452 156.881 93.0026 156.396 92.1562 155.426C91.3099 154.449 90.8867 153.141 90.8867 151.5C90.8867 149.742 91.3327 148.342 92.2246 147.301C93.1165 146.259 94.3145 145.738 95.8184 145.738ZM107.146 155.318C107.967 155.318 108.647 154.977 109.188 154.293C109.734 153.603 110.008 152.574 110.008 151.207C110.008 150.374 109.887 149.658 109.646 149.059C109.191 147.906 108.357 147.33 107.146 147.33C105.929 147.33 105.096 147.939 104.646 149.156C104.406 149.807 104.285 150.634 104.285 151.637C104.285 152.444 104.406 153.131 104.646 153.697C105.102 154.778 105.936 155.318 107.146 155.318ZM102.596 146.09H104.305V147.477C104.656 147.001 105.04 146.633 105.457 146.373C106.049 145.982 106.746 145.787 107.547 145.787C108.732 145.787 109.738 146.243 110.564 147.154C111.391 148.059 111.805 149.355 111.805 151.041C111.805 153.32 111.209 154.947 110.018 155.924C109.262 156.542 108.383 156.852 107.381 156.852C106.593 156.852 105.932 156.679 105.398 156.334C105.086 156.139 104.738 155.803 104.354 155.328V160.67H102.596V146.09ZM115.623 146.041V152.984C115.623 153.518 115.708 153.954 115.877 154.293C116.189 154.918 116.772 155.23 117.625 155.23C118.849 155.23 119.682 154.684 120.125 153.59C120.366 153.004 120.486 152.2 120.486 151.178V146.041H122.244V156.5H120.584L120.604 154.957C120.376 155.354 120.092 155.689 119.754 155.963C119.083 156.51 118.27 156.783 117.312 156.783C115.822 156.783 114.806 156.285 114.266 155.289C113.973 154.755 113.826 154.042 113.826 153.15V146.041H115.623ZM125.047 142.154H126.805V156.5H125.047V142.154ZM130.799 153.717C130.799 154.225 130.984 154.625 131.355 154.918C131.727 155.211 132.166 155.357 132.674 155.357C133.292 155.357 133.891 155.214 134.471 154.928C135.447 154.452 135.936 153.674 135.936 152.594V151.178C135.721 151.314 135.444 151.428 135.105 151.52C134.767 151.611 134.435 151.676 134.109 151.715L133.045 151.852C132.407 151.936 131.928 152.07 131.609 152.252C131.069 152.558 130.799 153.046 130.799 153.717ZM135.057 150.162C135.46 150.11 135.73 149.941 135.867 149.654C135.945 149.498 135.984 149.273 135.984 148.98C135.984 148.382 135.77 147.949 135.34 147.682C134.917 147.408 134.308 147.271 133.514 147.271C132.596 147.271 131.945 147.519 131.561 148.014C131.346 148.287 131.206 148.694 131.141 149.234H129.5C129.533 147.945 129.949 147.05 130.75 146.549C131.557 146.041 132.492 145.787 133.553 145.787C134.783 145.787 135.783 146.021 136.551 146.49C137.312 146.959 137.693 147.688 137.693 148.678V154.703C137.693 154.885 137.729 155.032 137.801 155.143C137.879 155.253 138.038 155.309 138.279 155.309C138.357 155.309 138.445 155.305 138.543 155.299C138.641 155.286 138.745 155.27 138.855 155.25V156.549C138.582 156.627 138.374 156.676 138.23 156.695C138.087 156.715 137.892 156.725 137.645 156.725C137.039 156.725 136.6 156.51 136.326 156.08C136.183 155.852 136.082 155.53 136.023 155.113C135.665 155.582 135.151 155.989 134.48 156.334C133.81 156.679 133.071 156.852 132.264 156.852C131.294 156.852 130.499 156.559 129.881 155.973C129.269 155.38 128.963 154.641 128.963 153.756C128.963 152.786 129.266 152.034 129.871 151.5C130.477 150.966 131.271 150.637 132.254 150.514L135.057 150.162ZM140.633 146.041H142.303V147.848C142.439 147.496 142.775 147.07 143.309 146.568C143.842 146.061 144.458 145.807 145.154 145.807C145.187 145.807 145.242 145.81 145.32 145.816C145.398 145.823 145.532 145.836 145.721 145.855V147.711C145.617 147.691 145.519 147.678 145.428 147.672C145.343 147.665 145.249 147.662 145.145 147.662C144.259 147.662 143.579 147.949 143.104 148.521C142.628 149.088 142.391 149.742 142.391 150.484V156.5H140.633V146.041Z" fill="#303030"/>
<path d="M29.6543 199.488H31.9492L39.1953 211.109V199.488H41.041V213.833H38.8633L31.5098 202.222V213.833H29.6543V199.488ZM48.2285 203.14C48.9707 203.14 49.6901 203.316 50.3867 203.667C51.0833 204.012 51.6139 204.462 51.9785 205.015C52.3301 205.542 52.5645 206.157 52.6816 206.861C52.7858 207.342 52.8379 208.111 52.8379 209.165H45.1719C45.2044 210.226 45.4551 211.079 45.9238 211.724C46.3926 212.362 47.1185 212.681 48.1016 212.681C49.0195 212.681 49.752 212.378 50.2988 211.773C50.6113 211.421 50.8327 211.014 50.9629 210.552H52.6914C52.6458 210.936 52.4928 211.366 52.2324 211.841C51.9785 212.31 51.6921 212.694 51.373 212.993C50.8392 213.514 50.1784 213.866 49.3906 214.048C48.9674 214.152 48.4889 214.204 47.9551 214.204C46.653 214.204 45.5495 213.732 44.6445 212.788C43.7396 211.838 43.2871 210.51 43.2871 208.804C43.2871 207.124 43.7428 205.76 44.6543 204.712C45.5658 203.664 46.7572 203.14 48.2285 203.14ZM51.0312 207.769C50.9596 207.007 50.7936 206.398 50.5332 205.943C50.0514 205.096 49.2474 204.673 48.1211 204.673C47.3138 204.673 46.6367 204.966 46.0898 205.552C45.543 206.131 45.2533 206.87 45.2207 207.769H51.0312ZM55.8164 203.374L57.8281 211.616L59.8691 203.374H61.8418L63.8926 211.568L66.0312 203.374H67.7891L64.752 213.833H62.9258L60.7969 205.738L58.7363 213.833H56.9102L53.8926 203.374H55.8164ZM73.8145 203.14C74.5566 203.14 75.276 203.316 75.9727 203.667C76.6693 204.012 77.1999 204.462 77.5645 205.015C77.916 205.542 78.1504 206.157 78.2676 206.861C78.3717 207.342 78.4238 208.111 78.4238 209.165H70.7578C70.7904 210.226 71.041 211.079 71.5098 211.724C71.9785 212.362 72.7044 212.681 73.6875 212.681C74.6055 212.681 75.3379 212.378 75.8848 211.773C76.1973 211.421 76.4186 211.014 76.5488 210.552H78.2773C78.2318 210.936 78.0788 211.366 77.8184 211.841C77.5645 212.31 77.278 212.694 76.959 212.993C76.4251 213.514 75.7643 213.866 74.9766 214.048C74.5534 214.152 74.0749 214.204 73.541 214.204C72.2389 214.204 71.1354 213.732 70.2305 212.788C69.3255 211.838 68.873 210.51 68.873 208.804C68.873 207.124 69.3288 205.76 70.2402 204.712C71.1517 203.664 72.3431 203.14 73.8145 203.14ZM76.6172 207.769C76.5456 207.007 76.3796 206.398 76.1191 205.943C75.6374 205.096 74.8333 204.673 73.707 204.673C72.8997 204.673 72.2227 204.966 71.6758 205.552C71.1289 206.131 70.8392 206.87 70.8066 207.769H76.6172ZM81.6367 210.552C81.6888 211.138 81.8353 211.587 82.0762 211.9C82.5189 212.466 83.2871 212.749 84.3809 212.749C85.0319 212.749 85.6048 212.609 86.0996 212.329C86.5944 212.043 86.8418 211.603 86.8418 211.011C86.8418 210.562 86.6432 210.22 86.2461 209.986C85.9922 209.842 85.4909 209.676 84.7422 209.488L83.3457 209.136C82.4538 208.915 81.7962 208.667 81.373 208.394C80.6178 207.919 80.2402 207.261 80.2402 206.421C80.2402 205.432 80.5951 204.631 81.3047 204.019C82.0208 203.407 82.9811 203.101 84.1855 203.101C85.7611 203.101 86.8971 203.563 87.5938 204.488C88.0299 205.073 88.2415 205.705 88.2285 206.382H86.5684C86.5358 205.985 86.3958 205.624 86.1484 205.298C85.7448 204.836 85.0449 204.605 84.0488 204.605C83.3848 204.605 82.8802 204.732 82.5352 204.986C82.1966 205.24 82.0273 205.575 82.0273 205.991C82.0273 206.447 82.252 206.812 82.7012 207.085C82.9616 207.248 83.3457 207.391 83.8535 207.515L85.0156 207.798C86.2786 208.104 87.125 208.4 87.5547 208.687C88.2383 209.136 88.5801 209.842 88.5801 210.806C88.5801 211.737 88.2253 212.541 87.5156 213.218C86.8125 213.895 85.7383 214.234 84.293 214.234C82.737 214.234 81.6335 213.882 80.9824 213.179C80.3379 212.469 79.9928 211.594 79.9473 210.552H81.6367ZM90.9434 200.454H92.7207V203.374H94.3906V204.81H92.7207V211.636C92.7207 212.001 92.8444 212.245 93.0918 212.368C93.2285 212.44 93.4564 212.476 93.7754 212.476C93.86 212.476 93.9512 212.476 94.0488 212.476C94.1465 212.469 94.2604 212.46 94.3906 212.447V213.833C94.1888 213.892 93.9772 213.934 93.7559 213.96C93.541 213.986 93.3066 213.999 93.0527 213.999C92.2324 213.999 91.6758 213.791 91.3828 213.374C91.0898 212.951 90.9434 212.404 90.9434 211.734V204.81H89.5273V203.374H90.9434V200.454Z" fill="#303030"/>
</svg>
