<svg width="278" height="101" viewBox="0 0 278 101" fill="none" xmlns="http://www.w3.org/2000/svg">
<path d="M23.3594 62.3516C21.2109 64.3177 18.4635 65.3008 15.1172 65.3008C10.9766 65.3008 7.72135 63.9727 5.35156 61.3164C2.98177 58.6471 1.79688 54.9883 1.79688 50.3398C1.79688 45.3138 3.14453 41.4401 5.83984 38.7188C8.18359 36.349 11.1654 35.1641 14.7852 35.1641C19.6289 35.1641 23.1706 36.7526 25.4102 39.9297C26.6471 41.7135 27.3112 43.5039 27.4023 45.3008H21.3867C20.9961 43.9206 20.4948 42.8789 19.8828 42.1758C18.7891 40.9258 17.168 40.3008 15.0195 40.3008C12.832 40.3008 11.1068 41.1862 9.84375 42.957C8.58073 44.7148 7.94922 47.2083 7.94922 50.4375C7.94922 53.6667 8.61328 56.0885 9.94141 57.7031C11.2826 59.3047 12.9818 60.1055 15.0391 60.1055C17.1484 60.1055 18.7565 59.4154 19.8633 58.0352C20.4753 57.293 20.9831 56.1797 21.3867 54.6953H27.3438C26.8229 57.8333 25.4948 60.3854 23.3594 62.3516ZM42.207 48.3477C39.9674 48.3477 38.4635 49.0768 37.6953 50.5352C37.2656 51.3555 37.0508 52.6185 37.0508 54.3242V64.5H31.4453V43.2109H36.7578V46.9219C37.6172 45.5026 38.3659 44.5326 39.0039 44.0117C40.0456 43.1393 41.3997 42.7031 43.0664 42.7031C43.1706 42.7031 43.2552 42.7096 43.3203 42.7227C43.3984 42.7227 43.5612 42.7292 43.8086 42.7422V48.4453C43.457 48.4062 43.1445 48.3802 42.8711 48.3672C42.5977 48.3542 42.3763 48.3477 42.207 48.3477ZM64.8438 45.9062C66.6406 48.1589 67.5391 50.8216 67.5391 53.8945C67.5391 57.0195 66.6406 59.6953 64.8438 61.9219C63.0469 64.1354 60.319 65.2422 56.6602 65.2422C53.0013 65.2422 50.2734 64.1354 48.4766 61.9219C46.6797 59.6953 45.7812 57.0195 45.7812 53.8945C45.7812 50.8216 46.6797 48.1589 48.4766 45.9062C50.2734 43.6536 53.0013 42.5273 56.6602 42.5273C60.319 42.5273 63.0469 43.6536 64.8438 45.9062ZM56.6406 47.2344C55.013 47.2344 53.7565 47.8138 52.8711 48.9727C51.9987 50.1185 51.5625 51.7591 51.5625 53.8945C51.5625 56.0299 51.9987 57.6771 52.8711 58.8359C53.7565 59.9948 55.013 60.5742 56.6406 60.5742C58.2682 60.5742 59.5182 59.9948 60.3906 58.8359C61.263 57.6771 61.6992 56.0299 61.6992 53.8945C61.6992 51.7591 61.263 50.1185 60.3906 48.9727C59.5182 47.8138 58.2682 47.2344 56.6406 47.2344ZM87.6953 64.5L84.3555 48.9922L80.9766 64.5H75.1953L69.2188 43.2109H75.1953L78.5156 58.4844L81.582 43.2109H87.2266L90.4688 58.543L93.7891 43.2109H99.5898L93.418 64.5H87.6953ZM122.051 35.75V64.5H116.641V61.5508C115.846 62.8138 114.941 63.7318 113.926 64.3047C112.91 64.8776 111.647 65.1641 110.137 65.1641C107.65 65.1641 105.553 64.1615 103.848 62.1562C102.155 60.138 101.309 57.5534 101.309 54.4023C101.309 50.7695 102.142 47.9115 103.809 45.8281C105.488 43.7448 107.728 42.7031 110.527 42.7031C111.816 42.7031 112.962 42.9896 113.965 43.5625C114.967 44.1224 115.781 44.9036 116.406 45.9062V35.75H122.051ZM107.051 53.9922C107.051 55.9583 107.441 57.5273 108.223 58.6992C108.991 59.8841 110.163 60.4766 111.738 60.4766C113.314 60.4766 114.512 59.8906 115.332 58.7188C116.152 57.5469 116.562 56.0299 116.562 54.168C116.562 51.5638 115.905 49.7018 114.59 48.582C113.783 47.9049 112.845 47.5664 111.777 47.5664C110.15 47.5664 108.952 48.1849 108.184 49.4219C107.428 50.6458 107.051 52.1693 107.051 53.9922Z" fill="#020202"/>
<path d="M144.609 53.4062V35.7109H150.723V53.4062C150.723 56.4661 150.247 58.849 149.297 60.5547C147.526 63.6797 144.147 65.2422 139.16 65.2422C134.173 65.2422 130.788 63.6797 129.004 60.5547C128.053 58.849 127.578 56.4661 127.578 53.4062V35.7109H133.691V53.4062C133.691 55.3854 133.926 56.8307 134.395 57.7422C135.124 59.3568 136.712 60.1641 139.16 60.1641C141.595 60.1641 143.177 59.3568 143.906 57.7422C144.375 56.8307 144.609 55.3854 144.609 53.4062ZM173.867 45.4961C175.586 47.332 176.445 50.0273 176.445 53.582C176.445 57.332 175.599 60.1901 173.906 62.1562C172.227 64.1224 170.059 65.1055 167.402 65.1055C165.71 65.1055 164.303 64.6823 163.184 63.8359C162.572 63.3672 161.973 62.6836 161.387 61.7852V72.8789H155.879V43.2109H161.211V46.3555C161.81 45.431 162.448 44.7018 163.125 44.168C164.362 43.2174 165.833 42.7422 167.539 42.7422C170.026 42.7422 172.135 43.6602 173.867 45.4961ZM170.703 53.8555C170.703 52.2148 170.326 50.763 169.57 49.5C168.828 48.237 167.617 47.6055 165.938 47.6055C163.919 47.6055 162.533 48.5625 161.777 50.4766C161.387 51.4922 161.191 52.7812 161.191 54.3438C161.191 56.8177 161.849 58.556 163.164 59.5586C163.945 60.1445 164.87 60.4375 165.938 60.4375C167.487 60.4375 168.665 59.8385 169.473 58.6406C170.293 57.4427 170.703 55.8477 170.703 53.8555Z" fill="#FF992B"/>
<g filter="url(#filter0_d_2002_288)">
<path d="M192 42.5C192 31.4543 200.954 22.5 212 22.5H228C239.046 22.5 248 31.4543 248 42.5V58.5C248 69.5457 239.046 78.5 228 78.5H212C200.954 78.5 192 69.5457 192 58.5V42.5Z" fill="url(#paint0_linear_2002_288)" shape-rendering="crispEdges"/>
<g clip-path="url(#clip0_2002_288)">
<path d="M227.5 64V61C227.5 59.4087 226.868 57.8826 225.743 56.7574C224.617 55.6321 223.091 55 221.5 55H209.5C207.909 55 206.383 55.6321 205.257 56.7574C204.132 57.8826 203.5 59.4087 203.5 61V64M236.5 64V61C236.499 59.6706 236.057 58.3792 235.242 57.3285C234.428 56.2778 233.287 55.5274 232 55.195M226 37.195C227.291 37.5255 228.435 38.2761 229.251 39.3285C230.068 40.3809 230.512 41.6752 230.512 43.0075C230.512 44.3398 230.068 45.6341 229.251 46.6865C228.435 47.7389 227.291 48.4895 226 48.82M221.5 43C221.5 46.3137 218.814 49 215.5 49C212.186 49 209.5 46.3137 209.5 43C209.5 39.6863 212.186 37 215.5 37C218.814 37 221.5 39.6863 221.5 43Z" stroke="white" stroke-opacity="0.8" stroke-width="4" stroke-linecap="round" stroke-linejoin="round"/>
</g>
</g>
<defs>
<filter id="filter0_d_2002_288" x="162" y="-7.5" width="116" height="116" filterUnits="userSpaceOnUse" color-interpolation-filters="sRGB">
<feFlood flood-opacity="0" result="BackgroundImageFix"/>
<feColorMatrix in="SourceAlpha" type="matrix" values="0 0 0 0 0 0 0 0 0 0 0 0 0 0 0 0 0 0 127 0" result="hardAlpha"/>
<feOffset/>
<feGaussianBlur stdDeviation="15"/>
<feComposite in2="hardAlpha" operator="out"/>
<feColorMatrix type="matrix" values="0 0 0 0 0.231373 0 0 0 0 0.509804 0 0 0 0 0.964706 0 0 0 0.3 0"/>
<feBlend mode="normal" in2="BackgroundImageFix" result="effect1_dropShadow_2002_288"/>
<feBlend mode="normal" in="SourceGraphic" in2="effect1_dropShadow_2002_288" result="shape"/>
</filter>
<linearGradient id="paint0_linear_2002_288" x1="192" y1="50.5" x2="248" y2="50.5" gradientUnits="userSpaceOnUse">
<stop stop-color="#FF992B"/>
<stop offset="1" stop-color="#FF8400"/>
</linearGradient>
<clipPath id="clip0_2002_288">
<rect width="36" height="36" fill="white" transform="translate(202 32.5)"/>
</clipPath>
</defs>
</svg>
