<svg width="116" height="101" viewBox="0 0 116 101" fill="none" xmlns="http://www.w3.org/2000/svg">
<g filter="url(#filter0_d_2002_290)">
<path d="M30 42.5C30 31.4543 38.9543 22.5 50 22.5H66C77.0457 22.5 86 31.4543 86 42.5V58.5C86 69.5457 77.0457 78.5 66 78.5H50C38.9543 78.5 30 69.5457 30 58.5V42.5Z" fill="url(#paint0_linear_2002_290)" shape-rendering="crispEdges"/>
<g clip-path="url(#clip0_2002_290)">
<path d="M65.5 64V61C65.5 59.4087 64.8679 57.8826 63.7426 56.7574C62.6174 55.6321 61.0913 55 59.5 55H47.5C45.9087 55 44.3826 55.6321 43.2574 56.7574C42.1321 57.8826 41.5 59.4087 41.5 61V64M74.5 64V61C74.499 59.6706 74.0565 58.3792 73.242 57.3285C72.4276 56.2778 71.2872 55.5274 70 55.195M64 37.195C65.2906 37.5255 66.4346 38.2761 67.2515 39.3285C68.0684 40.3809 68.5118 41.6752 68.5118 43.0075C68.5118 44.3398 68.0684 45.6341 67.2515 46.6865C66.4346 47.7389 65.2906 48.4895 64 48.82M59.5 43C59.5 46.3137 56.8137 49 53.5 49C50.1863 49 47.5 46.3137 47.5 43C47.5 39.6863 50.1863 37 53.5 37C56.8137 37 59.5 39.6863 59.5 43Z" stroke="white" stroke-opacity="0.8" stroke-width="4" stroke-linecap="round" stroke-linejoin="round"/>
</g>
</g>
<defs>
<filter id="filter0_d_2002_290" x="0" y="-7.5" width="116" height="116" filterUnits="userSpaceOnUse" color-interpolation-filters="sRGB">
<feFlood flood-opacity="0" result="BackgroundImageFix"/>
<feColorMatrix in="SourceAlpha" type="matrix" values="0 0 0 0 0 0 0 0 0 0 0 0 0 0 0 0 0 0 127 0" result="hardAlpha"/>
<feOffset/>
<feGaussianBlur stdDeviation="15"/>
<feComposite in2="hardAlpha" operator="out"/>
<feColorMatrix type="matrix" values="0 0 0 0 0.231373 0 0 0 0 0.509804 0 0 0 0 0.964706 0 0 0 0.3 0"/>
<feBlend mode="normal" in2="BackgroundImageFix" result="effect1_dropShadow_2002_290"/>
<feBlend mode="normal" in="SourceGraphic" in2="effect1_dropShadow_2002_290" result="shape"/>
</filter>
<linearGradient id="paint0_linear_2002_290" x1="30" y1="50.5" x2="86" y2="50.5" gradientUnits="userSpaceOnUse">
<stop stop-color="#FF992B"/>
<stop offset="1" stop-color="#FF8400"/>
</linearGradient>
<clipPath id="clip0_2002_290">
<rect width="36" height="36" fill="white" transform="translate(40 32.5)"/>
</clipPath>
</defs>
</svg>
