<svg width="175" height="38" viewBox="0 0 175 38" fill="none" xmlns="http://www.w3.org/2000/svg">
<path d="M21.5625 27.1875C19.4141 29.1536 16.6667 30.1367 13.3203 30.1367C9.17969 30.1367 5.92448 28.8086 3.55469 26.1523C1.1849 23.4831 0 19.8242 0 15.1758C0 10.1497 1.34766 6.27604 4.04297 3.55469C6.38672 1.1849 9.36849 0 12.9883 0C17.832 0 21.3737 1.58854 23.6133 4.76562C24.8503 6.54948 25.5143 8.33984 25.6055 10.1367H19.5898C19.1992 8.75651 18.6979 7.71484 18.0859 7.01172C16.9922 5.76172 15.3711 5.13672 13.2227 5.13672C11.0352 5.13672 9.3099 6.02214 8.04688 7.79297C6.78385 9.55078 6.15234 12.0443 6.15234 15.2734C6.15234 18.5026 6.81641 20.9245 8.14453 22.5391C9.48568 24.1406 11.1849 24.9414 13.2422 24.9414C15.3516 24.9414 16.9596 24.2513 18.0664 22.8711C18.6784 22.1289 19.1862 21.0156 19.5898 19.5312H25.5469C25.026 22.6693 23.6979 25.2214 21.5625 27.1875ZM40.4102 13.1836C38.1706 13.1836 36.6667 13.9128 35.8984 15.3711C35.4688 16.1914 35.2539 17.4544 35.2539 19.1602V29.3359H29.6484V8.04688H34.9609V11.7578C35.8203 10.3385 36.569 9.36849 37.207 8.84766C38.2487 7.97526 39.6029 7.53906 41.2695 7.53906C41.3737 7.53906 41.4583 7.54557 41.5234 7.55859C41.6016 7.55859 41.7643 7.5651 42.0117 7.57812V13.2812C41.6602 13.2422 41.3477 13.2161 41.0742 13.2031C40.8008 13.1901 40.5794 13.1836 40.4102 13.1836ZM63.0469 10.7422C64.8438 12.9948 65.7422 15.6576 65.7422 18.7305C65.7422 21.8555 64.8438 24.5312 63.0469 26.7578C61.25 28.9714 58.5221 30.0781 54.8633 30.0781C51.2044 30.0781 48.4766 28.9714 46.6797 26.7578C44.8828 24.5312 43.9844 21.8555 43.9844 18.7305C43.9844 15.6576 44.8828 12.9948 46.6797 10.7422C48.4766 8.48958 51.2044 7.36328 54.8633 7.36328C58.5221 7.36328 61.25 8.48958 63.0469 10.7422ZM54.8438 12.0703C53.2161 12.0703 51.9596 12.6497 51.0742 13.8086C50.2018 14.9544 49.7656 16.5951 49.7656 18.7305C49.7656 20.8659 50.2018 22.513 51.0742 23.6719C51.9596 24.8307 53.2161 25.4102 54.8438 25.4102C56.4714 25.4102 57.7214 24.8307 58.5938 23.6719C59.4661 22.513 59.9023 20.8659 59.9023 18.7305C59.9023 16.5951 59.4661 14.9544 58.5938 13.8086C57.7214 12.6497 56.4714 12.0703 54.8438 12.0703ZM85.8984 29.3359L82.5586 13.8281L79.1797 29.3359H73.3984L67.4219 8.04688H73.3984L76.7188 23.3203L79.7852 8.04688H85.4297L88.6719 23.3789L91.9922 8.04688H97.793L91.6211 29.3359H85.8984ZM120.254 0.585938V29.3359H114.844V26.3867C114.049 27.6497 113.145 28.5677 112.129 29.1406C111.113 29.7135 109.85 30 108.34 30C105.853 30 103.757 28.9974 102.051 26.9922C100.358 24.974 99.5117 22.3893 99.5117 19.2383C99.5117 15.6055 100.345 12.7474 102.012 10.6641C103.691 8.58073 105.931 7.53906 108.73 7.53906C110.02 7.53906 111.165 7.82552 112.168 8.39844C113.171 8.95833 113.984 9.73958 114.609 10.7422V0.585938H120.254ZM105.254 18.8281C105.254 20.7943 105.645 22.3633 106.426 23.5352C107.194 24.7201 108.366 25.3125 109.941 25.3125C111.517 25.3125 112.715 24.7266 113.535 23.5547C114.355 22.3828 114.766 20.8659 114.766 19.0039C114.766 16.3997 114.108 14.5378 112.793 13.418C111.986 12.7409 111.048 12.4023 109.98 12.4023C108.353 12.4023 107.155 13.0208 106.387 14.2578C105.632 15.4818 105.254 17.0052 105.254 18.8281Z" fill="#020202"/>
<path d="M142.812 18.2422V0.546875H148.926V18.2422C148.926 21.3021 148.451 23.6849 147.5 25.3906C145.729 28.5156 142.35 30.0781 137.363 30.0781C132.376 30.0781 128.991 28.5156 127.207 25.3906C126.257 23.6849 125.781 21.3021 125.781 18.2422V0.546875H131.895V18.2422C131.895 20.2214 132.129 21.6667 132.598 22.5781C133.327 24.1927 134.915 25 137.363 25C139.798 25 141.38 24.1927 142.109 22.5781C142.578 21.6667 142.812 20.2214 142.812 18.2422ZM172.07 10.332C173.789 12.168 174.648 14.8633 174.648 18.418C174.648 22.168 173.802 25.026 172.109 26.9922C170.43 28.9583 168.262 29.9414 165.605 29.9414C163.913 29.9414 162.507 29.5182 161.387 28.6719C160.775 28.2031 160.176 27.5195 159.59 26.6211V37.7148H154.082V8.04688H159.414V11.1914C160.013 10.2669 160.651 9.53776 161.328 9.00391C162.565 8.05339 164.036 7.57812 165.742 7.57812C168.229 7.57812 170.339 8.49609 172.07 10.332ZM168.906 18.6914C168.906 17.0508 168.529 15.599 167.773 14.3359C167.031 13.0729 165.82 12.4414 164.141 12.4414C162.122 12.4414 160.736 13.3984 159.98 15.3125C159.59 16.3281 159.395 17.6172 159.395 19.1797C159.395 21.6536 160.052 23.3919 161.367 24.3945C162.148 24.9805 163.073 25.2734 164.141 25.2734C165.69 25.2734 166.868 24.6745 167.676 23.4766C168.496 22.2786 168.906 20.6836 168.906 18.6914Z" fill="#FF992B"/>
</svg>
